<svg xmlns="http://www.w3.org/2000/svg" viewBox="0 0 1024 1024" width="1024" height="1024">
  <defs>
    <radialGradient id="leaf" cx="38%" cy="30%" r="75%">
      <stop offset="0%" stop-color="#C7ECB6"/>
      <stop offset="42%" stop-color="#86C98C"/>
      <stop offset="100%" stop-color="#46A06A"/>
    </radialGradient>
    <radialGradient id="leafBack" cx="42%" cy="34%" r="78%">
      <stop offset="0%" stop-color="#46A06A"/>
      <stop offset="100%" stop-color="#2E7D52"/>
    </radialGradient>
    <linearGradient id="trunk" x1="0" y1="0" x2="1" y2="0">
      <stop offset="0%" stop-color="#B5894F"/>
      <stop offset="48%" stop-color="#8A5E38"/>
      <stop offset="100%" stop-color="#6E4A2B"/>
    </linearGradient>
    <radialGradient id="soil" cx="50%" cy="38%" r="65%">
      <stop offset="0%" stop-color="#8A5E3C"/>
      <stop offset="100%" stop-color="#5E3D26"/>
    </radialGradient>
    <radialGradient id="gold" cx="50%" cy="46%" r="55%">
      <stop offset="0%" stop-color="#F6D873" stop-opacity="0.95"/>
      <stop offset="55%" stop-color="#D9A23A" stop-opacity="0.45"/>
      <stop offset="100%" stop-color="#D9A23A" stop-opacity="0"/>
    </radialGradient>
    <radialGradient id="hi" cx="50%" cy="50%" r="50%">
      <stop offset="0%" stop-color="#C7ECB6" stop-opacity="0.7"/>
      <stop offset="100%" stop-color="#C7ECB6" stop-opacity="0"/>
    </radialGradient>
    <filter id="soft" x="-30%" y="-30%" width="160%" height="160%"><feGaussianBlur stdDeviation="6"/></filter>
    <filter id="glow" x="-60%" y="-60%" width="220%" height="220%"><feGaussianBlur stdDeviation="22"/></filter>
    <filter id="canopyShadow" x="-40%" y="-40%" width="180%" height="180%">
      <feDropShadow dx="0" dy="14" stdDeviation="16" flood-color="#1c3a26" flood-opacity="0.28"/>
    </filter>
  </defs>

  <ellipse cx="512" cy="902" rx="250" ry="46" fill="#16321f" opacity="0.30" filter="url(#soft)"/>
  <ellipse cx="512" cy="872" rx="232" ry="62" fill="url(#soil)"/>
  <ellipse cx="512" cy="858" rx="232" ry="52" fill="#8A5E3C" opacity="0.45"/>
  <path d="M299 858 q -5 -11 -2 -19 q 6 10 2 19 z" fill="#5FB06A" opacity="0.85"/>
  <path d="M316 863 q 0 -14 0 -23 q 4 12 1 23 z" fill="#5FB06A" opacity="0.85"/>
  <path d="M328 866 q -5 -14 -2 -24 q 4 13 1 24 z" fill="#5FB06A" opacity="0.85"/>
  <path d="M347 865 q -3 -19 -1 -31 q 4 17 1 31 z" fill="#5FB06A" opacity="0.85"/>
  <path d="M365 861 q -1 -20 -0 -33 q 6 18 2 33 z" fill="#5FB06A" opacity="0.85"/>
  <path d="M384 855 q -3 -10 -1 -17 q 7 9 2 17 z" fill="#5FB06A" opacity="0.85"/>
  <path d="M393 851 q 4 -11 2 -18 q 5 10 1 18 z" fill="#5FB06A" opacity="0.85"/>
  <path d="M409 850 q -2 -16 -1 -26 q 6 15 2 26 z" fill="#5FB06A" opacity="0.85"/>
  <path d="M428 853 q -4 -10 -1 -17 q 4 9 1 17 z" fill="#5FB06A" opacity="0.85"/>
  <path d="M445 858 q 1 -14 0 -24 q 5 13 1 24 z" fill="#5FB06A" opacity="0.85"/>
  <path d="M460 863 q 2 -13 1 -21 q 6 12 2 21 z" fill="#5FB06A" opacity="0.85"/>
  <path d="M474 866 q 5 -16 2 -26 q 6 14 2 26 z" fill="#5FB06A" opacity="0.85"/>
  <path d="M494 865 q -5 -13 -2 -21 q 7 12 2 21 z" fill="#5FB06A" opacity="0.85"/>
  <path d="M507 861 q -0 -18 -0 -30 q 4 16 1 30 z" fill="#5FB06A" opacity="0.85"/>
  <path d="M520 855 q 1 -17 0 -28 q 6 15 2 28 z" fill="#5FB06A" opacity="0.85"/>
  <path d="M543 851 q 1 -13 0 -22 q 6 12 2 22 z" fill="#5FB06A" opacity="0.85"/>
  <path d="M557 850 q 5 -15 2 -24 q 7 13 2 24 z" fill="#5FB06A" opacity="0.85"/>
  <path d="M572 853 q 2 -17 1 -28 q 4 15 1 28 z" fill="#5FB06A" opacity="0.85"/>
  <path d="M589 858 q -3 -20 -1 -34 q 6 19 2 34 z" fill="#5FB06A" opacity="0.85"/>
  <path d="M603 863 q -0 -17 -0 -28 q 4 15 1 28 z" fill="#5FB06A" opacity="0.85"/>
  <path d="M617 866 q 3 -11 1 -18 q 4 10 1 18 z" fill="#5FB06A" opacity="0.85"/>
  <path d="M633 865 q 4 -12 2 -20 q 5 11 2 20 z" fill="#5FB06A" opacity="0.85"/>
  <path d="M649 860 q 5 -14 2 -24 q 6 13 2 24 z" fill="#5FB06A" opacity="0.85"/>
  <path d="M671 855 q -1 -19 -0 -32 q 5 17 1 32 z" fill="#5FB06A" opacity="0.85"/>
  <path d="M683 851 q -4 -19 -2 -32 q 7 18 2 32 z" fill="#5FB06A" opacity="0.85"/>
  <path d="M697 850 q -0 -12 -0 -20 q 5 11 1 20 z" fill="#5FB06A" opacity="0.85"/>
  <ellipse cx="361" cy="878" rx="6" ry="4" fill="#7a5a3e" opacity="0.6"/>
  <ellipse cx="400" cy="883" rx="11" ry="5" fill="#7a5a3e" opacity="0.6"/>
  <ellipse cx="444" cy="884" rx="9" ry="3" fill="#7a5a3e" opacity="0.6"/>
  <ellipse cx="492" cy="886" rx="10" ry="5" fill="#7a5a3e" opacity="0.6"/>
  <ellipse cx="526" cy="880" rx="7" ry="5" fill="#7a5a3e" opacity="0.6"/>
  <ellipse cx="563" cy="875" rx="7" ry="3" fill="#7a5a3e" opacity="0.6"/>
  <ellipse cx="609" cy="875" rx="6" ry="3" fill="#7a5a3e" opacity="0.6"/>
<path d="M448 872 C 467 752 489 490 489 400 L 535 400 C 535 490 557 752 576 872 Q 512 890 448 872 Z" fill="url(#trunk)"/>
  <path d="M448 872 q -34 -6 -64 18 q 30 -2 64 -6 z" fill="url(#trunk)"/>
  <path d="M576 872 q 34 -6 64 18 q -30 -2 -64 -6 z" fill="url(#trunk)"/>
  <path d="M500 430 C 493 712 490 812 480 862" stroke="#B5894F" stroke-width="8" fill="none" opacity="0.5" stroke-linecap="round"/>
  <path d="M512 540 Q 577 501 674 462" stroke="url(#trunk)" stroke-width="20" fill="none" stroke-linecap="round"/>
  <path d="M512 540 Q 447 501 350 462" stroke="url(#trunk)" stroke-width="20" fill="none" stroke-linecap="round"/>
  <path d="M512 470 Q 542 423 587 376" stroke="url(#trunk)" stroke-width="20" fill="none" stroke-linecap="round"/>
  <path d="M512 470 Q 482 423 437 376" stroke="url(#trunk)" stroke-width="20" fill="none" stroke-linecap="round"/>
<circle cx="512" cy="372" r="351" fill="url(#gold)" filter="url(#glow)"/>
  <g filter="url(#canopyShadow)">
  <circle cx="518" cy="384" r="256" fill="url(#leafBack)"/>
  <circle cx="346" cy="321" r="134" fill="url(#leafBack)"/>
  <circle cx="582" cy="549" r="155" fill="url(#leafBack)"/>
  <circle cx="427" cy="285" r="129" fill="url(#leafBack)"/>
  <circle cx="438" cy="493" r="166" fill="url(#leafBack)"/>
  <circle cx="664" cy="380" r="158" fill="url(#leafBack)"/>
  <circle cx="370" cy="300" r="109" fill="url(#leafBack)"/>
  <circle cx="430" cy="255" r="143" fill="url(#leafBack)"/>
  <circle cx="436" cy="284" r="150" fill="url(#leafBack)"/>
  <circle cx="769" cy="361" r="137" fill="url(#leafBack)"/>
  <circle cx="654" cy="411" r="96" fill="url(#leafBack)"/>
  <circle cx="682" cy="335" r="116" fill="url(#leafBack)"/>
  <circle cx="660" cy="304" r="132" fill="url(#leafBack)"/>
  <circle cx="381" cy="425" r="135" fill="url(#leafBack)"/>
  <circle cx="607" cy="285" r="104" fill="url(#leafBack)"/>
  </g>
  <circle cx="512" cy="372" r="243" fill="url(#leaf)"/>
  <circle cx="340" cy="311" r="128" fill="url(#leaf)"/>
  <circle cx="576" cy="539" r="148" fill="url(#leaf)"/>
  <circle cx="421" cy="275" r="123" fill="url(#leaf)"/>
  <circle cx="432" cy="483" r="158" fill="url(#leaf)"/>
  <circle cx="658" cy="370" r="151" fill="url(#leaf)"/>
  <circle cx="364" cy="290" r="104" fill="url(#leaf)"/>
  <circle cx="424" cy="245" r="137" fill="url(#leaf)"/>
  <circle cx="430" cy="274" r="143" fill="url(#leaf)"/>
  <circle cx="763" cy="351" r="131" fill="url(#leaf)"/>
  <circle cx="648" cy="401" r="92" fill="url(#leaf)"/>
  <circle cx="676" cy="325" r="111" fill="url(#leaf)"/>
  <circle cx="654" cy="294" r="125" fill="url(#leaf)"/>
  <circle cx="375" cy="415" r="128" fill="url(#leaf)"/>
  <circle cx="601" cy="275" r="99" fill="url(#leaf)"/>
  <circle cx="442" cy="296" r="148" fill="url(#hi)"/>
  <circle cx="304" cy="273" r="77" fill="url(#hi)"/>
  <circle cx="535" cy="494" r="89" fill="url(#hi)"/>
  <circle cx="387" cy="238" r="74" fill="url(#hi)"/>
  <circle cx="388" cy="435" r="95" fill="url(#hi)"/>
  <circle cx="616" cy="324" r="90" fill="url(#hi)"/>
  <circle cx="335" cy="258" r="62" fill="url(#hi)"/>
  <circle cx="386" cy="204" r="82" fill="url(#hi)"/>
  <circle cx="390" cy="231" r="86" fill="url(#hi)"/>
  <circle cx="727" cy="312" r="78" fill="url(#hi)"/>
  <circle cx="622" cy="373" r="55" fill="url(#hi)"/>
  <circle cx="645" cy="292" r="66" fill="url(#hi)"/>
  <circle cx="619" cy="256" r="75" fill="url(#hi)"/>
  <circle cx="339" cy="376" r="77" fill="url(#hi)"/>
  <circle cx="573" cy="245" r="60" fill="url(#hi)"/>
  <circle cx="481" cy="506" r="19" fill="#F6D873" stroke="#D9A23A" stroke-width="2"/>
  <circle cx="396" cy="344" r="19" fill="#F6D873" stroke="#D9A23A" stroke-width="2"/>
  <circle cx="275" cy="369" r="19" fill="#F6D873" stroke="#D9A23A" stroke-width="2"/>
  <circle cx="348" cy="317" r="19" fill="#F6D873" stroke="#D9A23A" stroke-width="2"/>
  <circle cx="554" cy="241" r="19" fill="#F6D873" stroke="#D9A23A" stroke-width="2"/>
  <circle cx="477" cy="547" r="19" fill="#F6D873" stroke="#D9A23A" stroke-width="2"/>
  <circle cx="626" cy="530" r="19" fill="#F6D873" stroke="#D9A23A" stroke-width="2"/>
  <circle cx="647" cy="275" r="19" fill="#F6D873" stroke="#D9A23A" stroke-width="2"/>
  <circle cx="396" cy="362" r="19" fill="#F6D873" stroke="#D9A23A" stroke-width="2"/>
  <circle cx="610" cy="522" r="19" fill="#F6D873" stroke="#D9A23A" stroke-width="2"/>
  <path d="M471 104 L473 111 L471 118 L469 111 Z" fill="#FFF6D5"/>
  <path d="M456 66 L459 79 L456 92 L452 79 Z" fill="#FFF6D5"/>
  <path d="M365 149 L367 158 L365 168 L362 158 Z" fill="#FFF6D5"/>
  <path d="M653 531 L657 545 L653 558 L649 545 Z" fill="#FFF6D5"/>
  <path d="M285 508 L288 518 L285 528 L282 518 Z" fill="#FFF6D5"/>
  <path d="M852 330 L855 341 L852 353 L849 341 Z" fill="#FFF6D5"/>
  <path d="M576 112 L579 123 L576 134 L572 123 Z" fill="#FFF6D5"/>
  <path d="M601 109 L603 115 L601 122 L600 115 Z" fill="#FFF6D5"/>
</svg>