<svg xmlns="http://www.w3.org/2000/svg" viewBox="0 0 1024 1024" width="1024" height="1024">
  <defs>
    <radialGradient id="leaf" cx="38%" cy="30%" r="75%">
      <stop offset="0%" stop-color="#C7ECB6"/>
      <stop offset="42%" stop-color="#86C98C"/>
      <stop offset="100%" stop-color="#46A06A"/>
    </radialGradient>
    <radialGradient id="leafBack" cx="42%" cy="34%" r="78%">
      <stop offset="0%" stop-color="#46A06A"/>
      <stop offset="100%" stop-color="#2E7D52"/>
    </radialGradient>
    <linearGradient id="trunk" x1="0" y1="0" x2="1" y2="0">
      <stop offset="0%" stop-color="#B5894F"/>
      <stop offset="48%" stop-color="#8A5E38"/>
      <stop offset="100%" stop-color="#6E4A2B"/>
    </linearGradient>
    <radialGradient id="soil" cx="50%" cy="38%" r="65%">
      <stop offset="0%" stop-color="#8A5E3C"/>
      <stop offset="100%" stop-color="#5E3D26"/>
    </radialGradient>
    <radialGradient id="gold" cx="50%" cy="46%" r="55%">
      <stop offset="0%" stop-color="#F6D873" stop-opacity="0.95"/>
      <stop offset="55%" stop-color="#D9A23A" stop-opacity="0.45"/>
      <stop offset="100%" stop-color="#D9A23A" stop-opacity="0"/>
    </radialGradient>
    <radialGradient id="hi" cx="50%" cy="50%" r="50%">
      <stop offset="0%" stop-color="#C7ECB6" stop-opacity="0.7"/>
      <stop offset="100%" stop-color="#C7ECB6" stop-opacity="0"/>
    </radialGradient>
    <filter id="soft" x="-30%" y="-30%" width="160%" height="160%"><feGaussianBlur stdDeviation="6"/></filter>
    <filter id="glow" x="-60%" y="-60%" width="220%" height="220%"><feGaussianBlur stdDeviation="22"/></filter>
    <filter id="canopyShadow" x="-40%" y="-40%" width="180%" height="180%">
      <feDropShadow dx="0" dy="14" stdDeviation="16" flood-color="#1c3a26" flood-opacity="0.28"/>
    </filter>
  </defs>

  <ellipse cx="512" cy="902" rx="250" ry="46" fill="#16321f" opacity="0.30" filter="url(#soft)"/>
  <ellipse cx="512" cy="872" rx="232" ry="62" fill="url(#soil)"/>
  <ellipse cx="512" cy="858" rx="232" ry="52" fill="#8A5E3C" opacity="0.45"/>
  <path d="M299 858 q -5 -11 -2 -19 q 6 10 2 19 z" fill="#5FB06A" opacity="0.85"/>
  <path d="M316 863 q 0 -14 0 -23 q 4 12 1 23 z" fill="#5FB06A" opacity="0.85"/>
  <path d="M328 866 q -5 -14 -2 -24 q 4 13 1 24 z" fill="#5FB06A" opacity="0.85"/>
  <path d="M347 865 q -3 -19 -1 -31 q 4 17 1 31 z" fill="#5FB06A" opacity="0.85"/>
  <path d="M365 861 q -1 -20 -0 -33 q 6 18 2 33 z" fill="#5FB06A" opacity="0.85"/>
  <path d="M384 855 q -3 -10 -1 -17 q 7 9 2 17 z" fill="#5FB06A" opacity="0.85"/>
  <path d="M393 851 q 4 -11 2 -18 q 5 10 1 18 z" fill="#5FB06A" opacity="0.85"/>
  <path d="M409 850 q -2 -16 -1 -26 q 6 15 2 26 z" fill="#5FB06A" opacity="0.85"/>
  <path d="M428 853 q -4 -10 -1 -17 q 4 9 1 17 z" fill="#5FB06A" opacity="0.85"/>
  <path d="M445 858 q 1 -14 0 -24 q 5 13 1 24 z" fill="#5FB06A" opacity="0.85"/>
  <path d="M460 863 q 2 -13 1 -21 q 6 12 2 21 z" fill="#5FB06A" opacity="0.85"/>
  <path d="M474 866 q 5 -16 2 -26 q 6 14 2 26 z" fill="#5FB06A" opacity="0.85"/>
  <path d="M494 865 q -5 -13 -2 -21 q 7 12 2 21 z" fill="#5FB06A" opacity="0.85"/>
  <path d="M507 861 q -0 -18 -0 -30 q 4 16 1 30 z" fill="#5FB06A" opacity="0.85"/>
  <path d="M520 855 q 1 -17 0 -28 q 6 15 2 28 z" fill="#5FB06A" opacity="0.85"/>
  <path d="M543 851 q 1 -13 0 -22 q 6 12 2 22 z" fill="#5FB06A" opacity="0.85"/>
  <path d="M557 850 q 5 -15 2 -24 q 7 13 2 24 z" fill="#5FB06A" opacity="0.85"/>
  <path d="M572 853 q 2 -17 1 -28 q 4 15 1 28 z" fill="#5FB06A" opacity="0.85"/>
  <path d="M589 858 q -3 -20 -1 -34 q 6 19 2 34 z" fill="#5FB06A" opacity="0.85"/>
  <path d="M603 863 q -0 -17 -0 -28 q 4 15 1 28 z" fill="#5FB06A" opacity="0.85"/>
  <path d="M617 866 q 3 -11 1 -18 q 4 10 1 18 z" fill="#5FB06A" opacity="0.85"/>
  <path d="M633 865 q 4 -12 2 -20 q 5 11 2 20 z" fill="#5FB06A" opacity="0.85"/>
  <path d="M649 860 q 5 -14 2 -24 q 6 13 2 24 z" fill="#5FB06A" opacity="0.85"/>
  <path d="M671 855 q -1 -19 -0 -32 q 5 17 1 32 z" fill="#5FB06A" opacity="0.85"/>
  <path d="M683 851 q -4 -19 -2 -32 q 7 18 2 32 z" fill="#5FB06A" opacity="0.85"/>
  <path d="M697 850 q -0 -12 -0 -20 q 5 11 1 20 z" fill="#5FB06A" opacity="0.85"/>
  <ellipse cx="361" cy="878" rx="6" ry="4" fill="#7a5a3e" opacity="0.6"/>
  <ellipse cx="400" cy="883" rx="11" ry="5" fill="#7a5a3e" opacity="0.6"/>
  <ellipse cx="444" cy="884" rx="9" ry="3" fill="#7a5a3e" opacity="0.6"/>
  <ellipse cx="492" cy="886" rx="10" ry="5" fill="#7a5a3e" opacity="0.6"/>
  <ellipse cx="526" cy="880" rx="7" ry="5" fill="#7a5a3e" opacity="0.6"/>
  <ellipse cx="563" cy="875" rx="7" ry="3" fill="#7a5a3e" opacity="0.6"/>
  <ellipse cx="609" cy="875" rx="6" ry="3" fill="#7a5a3e" opacity="0.6"/>
<path d="M479 872 C 489 752 497 650 497 560 L 527 560 C 527 650 535 752 545 872 Q 512 890 479 872 Z" fill="url(#trunk)"/>
  <path d="M479 872 q -34 -6 -64 18 q 30 -2 64 -6 z" fill="url(#trunk)"/>
  <path d="M545 872 q 34 -6 64 18 q -30 -2 -64 -6 z" fill="url(#trunk)"/>
  <path d="M504 590 C 502 712 500 812 496 862" stroke="#B5894F" stroke-width="5" fill="none" opacity="0.5" stroke-linecap="round"/>
<g filter="url(#canopyShadow)">
  <circle cx="518" cy="512" r="142" fill="url(#leafBack)"/>
  <circle cx="527" cy="593" r="65" fill="url(#leafBack)"/>
  <circle cx="424" cy="457" r="50" fill="url(#leafBack)"/>
  <circle cx="650" cy="518" r="60" fill="url(#leafBack)"/>
  <circle cx="532" cy="614" r="69" fill="url(#leafBack)"/>
  <circle cx="574" cy="441" r="77" fill="url(#leafBack)"/>
  <circle cx="588" cy="581" r="88" fill="url(#leafBack)"/>
  </g>
  <circle cx="512" cy="500" r="135" fill="url(#leaf)"/>
  <circle cx="521" cy="583" r="62" fill="url(#leaf)"/>
  <circle cx="418" cy="447" r="48" fill="url(#leaf)"/>
  <circle cx="644" cy="508" r="57" fill="url(#leaf)"/>
  <circle cx="526" cy="604" r="66" fill="url(#leaf)"/>
  <circle cx="568" cy="431" r="74" fill="url(#leaf)"/>
  <circle cx="582" cy="571" r="84" fill="url(#leaf)"/>
  <circle cx="473" cy="458" r="82" fill="url(#hi)"/>
  <circle cx="503" cy="565" r="37" fill="url(#hi)"/>
  <circle cx="404" cy="433" r="29" fill="url(#hi)"/>
  <circle cx="628" cy="491" r="34" fill="url(#hi)"/>
  <circle cx="507" cy="584" r="40" fill="url(#hi)"/>
  <circle cx="548" cy="409" r="44" fill="url(#hi)"/>
  <circle cx="558" cy="546" r="50" fill="url(#hi)"/>
</svg>