<svg xmlns="http://www.w3.org/2000/svg" viewBox="0 0 1024 1024" width="1024" height="1024">
  <defs>
    <radialGradient id="baseFresh" cx="40%" cy="30%" r="78%"><stop offset="0%" stop-color="#7FC68A"/><stop offset="55%" stop-color="#46A06A"/><stop offset="100%" stop-color="#2C7A4F"/></radialGradient>
    <radialGradient id="baseGold" cx="40%" cy="30%" r="78%"><stop offset="0%" stop-color="#EAD46A"/><stop offset="55%" stop-color="#C9A227"/><stop offset="100%" stop-color="#8A7A2E"/></radialGradient>
    <radialGradient id="baseSpring" cx="40%" cy="30%" r="78%"><stop offset="0%" stop-color="#BCEB9C"/><stop offset="55%" stop-color="#7FCB7A"/><stop offset="100%" stop-color="#4FA85E"/></radialGradient>
    <radialGradient id="baseEmerald" cx="40%" cy="30%" r="78%"><stop offset="0%" stop-color="#5FB97E"/><stop offset="55%" stop-color="#2E9460"/><stop offset="100%" stop-color="#176B42"/></radialGradient>
    <radialGradient id="baseMature" cx="40%" cy="30%" r="78%"><stop offset="0%" stop-color="#9FC773"/><stop offset="55%" stop-color="#5E9A4A"/><stop offset="100%" stop-color="#3E7A38"/></radialGradient>
    <radialGradient id="baseTeal" cx="40%" cy="30%" r="78%"><stop offset="0%" stop-color="#6FCBB0"/><stop offset="55%" stop-color="#2E9E86"/><stop offset="100%" stop-color="#1B6E62"/></radialGradient>
    
    <linearGradient id="trunk" x1="0" y1="0" x2="1" y2="0"><stop offset="0%" stop-color="#B5894F"/><stop offset="45%" stop-color="#8A5E38"/><stop offset="100%" stop-color="#5E3F26"/></linearGradient>
    <radialGradient id="soil" cx="50%" cy="36%" r="68%"><stop offset="0%" stop-color="#946740"/><stop offset="100%" stop-color="#5A3A24"/></radialGradient>
    <linearGradient id="seedG" x1="0" y1="0" x2="1" y2="1"><stop offset="0%" stop-color="#C2925A"/><stop offset="55%" stop-color="#8A5A30"/><stop offset="100%" stop-color="#5A3A20"/></linearGradient>
    <linearGradient id="leafLin" x1="0" y1="0" x2="0" y2="1"><stop offset="0%" stop-color="#8FD08F"/><stop offset="100%" stop-color="#3C8F5E"/></linearGradient>
    <radialGradient id="dapple" cx="50%" cy="50%" r="50%"><stop offset="0%" stop-color="#CBEFB8" stop-opacity="0.9"/><stop offset="100%" stop-color="#CBEFB8" stop-opacity="0"/></radialGradient>
    <filter id="cshadow" x="-40%" y="-40%" width="180%" height="180%"><feDropShadow dx="0" dy="16" stdDeviation="18" flood-color="#143526" flood-opacity="0.30"/></filter>
    <filter id="soft" x="-50%" y="-50%" width="200%" height="200%"><feGaussianBlur stdDeviation="8"/></filter>
    <filter id="glow" x="-80%" y="-80%" width="260%" height="260%"><feGaussianBlur stdDeviation="26"/></filter>
  </defs>
<ellipse cx="512" cy="906" rx="280" ry="46" fill="#123121" opacity="0.30" filter="url(#soft)"/>
  <ellipse cx="512" cy="874" rx="247" ry="60" fill="url(#soil)"/>
  <ellipse cx="512" cy="860" rx="247" ry="48" fill="#9A6C44" opacity="0.40"/>
  <path d="M263 858 q -5 -10 -2 -16 q 6 9 2 16 z" fill="#60ab5a" opacity="0.9"/>
  <path d="M282 863 q -5 -9 -2 -15 q 5 8 2 15 z" fill="#50ad75" opacity="0.9"/>
  <path d="M296 865 q 5 -11 2 -18 q 6 10 2 18 z" fill="#61ac7b" opacity="0.9"/>
  <path d="M312 864 q -4 -17 -2 -28 q 5 15 1 28 z" fill="#51a975" opacity="0.9"/>
  <path d="M331 860 q -2 -14 -1 -23 q 6 13 2 23 z" fill="#60a05a" opacity="0.9"/>
  <path d="M348 856 q -2 -15 -1 -25 q 5 14 2 25 z" fill="#62ae62" opacity="0.9"/>
  <path d="M372 852 q 1 -15 0 -25 q 5 14 1 25 z" fill="#5fbd72" opacity="0.9"/>
  <path d="M384 851 q -1 -18 -0 -30 q 4 16 1 30 z" fill="#68a369" opacity="0.9"/>
  <path d="M399 854 q 1 -15 0 -25 q 6 14 2 25 z" fill="#6ca971" opacity="0.9"/>
  <path d="M421 858 q 4 -14 2 -23 q 5 13 2 23 z" fill="#6faf6f" opacity="0.9"/>
  <path d="M433 863 q 6 -15 2 -25 q 6 14 2 25 z" fill="#6aa865" opacity="0.9"/>
  <path d="M457 865 q -4 -9 -2 -14 q 5 8 2 14 z" fill="#51a073" opacity="0.9"/>
  <path d="M469 864 q 4 -11 2 -18 q 5 10 2 18 z" fill="#4fae6b" opacity="0.9"/>
  <path d="M493 860 q -3 -16 -1 -27 q 7 15 2 27 z" fill="#5baa77" opacity="0.9"/>
  <path d="M511 855 q -3 -10 -1 -16 q 5 9 1 16 z" fill="#55af6d" opacity="0.9"/>
  <path d="M522 852 q -2 -8 -1 -14 q 5 8 2 14 z" fill="#61c070" opacity="0.9"/>
  <path d="M542 851 q -5 -14 -2 -24 q 6 13 2 24 z" fill="#6dba77" opacity="0.9"/>
  <path d="M562 854 q -5 -12 -2 -20 q 5 11 2 20 z" fill="#63a05a" opacity="0.9"/>
  <path d="M573 858 q -5 -10 -2 -17 q 5 9 2 17 z" fill="#4da35b" opacity="0.9"/>
  <path d="M592 863 q 1 -9 1 -14 q 7 8 2 14 z" fill="#52a764" opacity="0.9"/>
  <path d="M609 865 q 6 -10 2 -16 q 7 9 2 16 z" fill="#5daf5b" opacity="0.9"/>
  <path d="M624 864 q 4 -12 2 -19 q 5 11 1 19 z" fill="#529e7a" opacity="0.9"/>
  <path d="M645 860 q -6 -10 -2 -16 q 6 9 2 16 z" fill="#60c177" opacity="0.9"/>
  <path d="M664 855 q -4 -11 -2 -18 q 5 10 2 18 z" fill="#68b174" opacity="0.9"/>
  <path d="M678 852 q 6 -11 2 -18 q 6 10 2 18 z" fill="#6bbb75" opacity="0.9"/>
  <path d="M699 851 q -2 -11 -1 -18 q 6 10 2 18 z" fill="#4e9f62" opacity="0.9"/>
  <path d="M712 854 q -1 -15 -0 -25 q 7 14 2 25 z" fill="#6ec17a" opacity="0.9"/>
  <path d="M730 858 q -4 -11 -1 -18 q 5 10 1 18 z" fill="#54b478" opacity="0.9"/>
  <ellipse cx="369" cy="885" rx="9" ry="5" fill="#7a5a3e" opacity="0.55"/>
  <ellipse cx="416" cy="887" rx="11" ry="5" fill="#7a5a3e" opacity="0.55"/>
  <ellipse cx="486" cy="885" rx="7" ry="5" fill="#7a5a3e" opacity="0.55"/>
  <ellipse cx="539" cy="889" rx="11" ry="4" fill="#7a5a3e" opacity="0.55"/>
  <ellipse cx="599" cy="891" rx="10" ry="4" fill="#7a5a3e" opacity="0.55"/>
  <ellipse cx="654" cy="880" rx="11" ry="5" fill="#7a5a3e" opacity="0.55"/>
<circle cx="512" cy="392" r="305" fill="#f97316" opacity="0.28" filter="url(#glow)"/>
<path d="M453 874 C 470 744 489 515 489 415 L 535 415 C 535 515 554 744 571 874 Q 512 890 453 874 Z" fill="url(#trunk)"/>
  <path d="M453 874 q -38 -4 -70 20 q 34 -2 70 -8 z" fill="url(#trunk)"/>
  <path d="M571 874 q 38 -4 70 20 q -34 -2 -70 -8 z" fill="url(#trunk)"/>
  <path d="M503 435 C 495 704 493 814 482 866" stroke="#C49A60" stroke-width="7" fill="none" opacity="0.5" stroke-linecap="round"/>
  <path d="M512 530 Q 577 490 657 451" stroke="url(#trunk)" stroke-width="21" fill="none" stroke-linecap="round"/>
  <path d="M512 530 Q 447 490 367 451" stroke="url(#trunk)" stroke-width="21" fill="none" stroke-linecap="round"/>
<g filter="url(#cshadow)"><ellipse cx="512" cy="392" rx="270" ry="242" fill="url(#baseMature)"/></g>
  <circle cx="551" cy="633" r="50" fill="#3d6a34" opacity="0.55"/>
  <circle cx="671" cy="543" r="52" fill="#38713b" opacity="0.55"/>
  <circle cx="628" cy="459" r="46" fill="#3b7332" opacity="0.55"/>
  <circle cx="636" cy="397" r="39" fill="#3e8338" opacity="0.55"/>
  <circle cx="330" cy="447" r="32" fill="#31742b" opacity="0.55"/>
  <circle cx="599" cy="604" r="40" fill="#41773f" opacity="0.55"/>
  <circle cx="623" cy="460" r="36" fill="#2e7833" opacity="0.55"/>
  <circle cx="650" cy="414" r="36" fill="#4b7638" opacity="0.55"/>
  <circle cx="298" cy="524" r="36" fill="#35622f" opacity="0.55"/>
  <circle cx="446" cy="454" r="32" fill="#3a7239" opacity="0.55"/>
  <circle cx="498" cy="639" r="54" fill="#466335" opacity="0.55"/>
  <circle cx="708" cy="472" r="46" fill="#326c36" opacity="0.55"/>
  <circle cx="355" cy="535" r="37" fill="#296d3a" opacity="0.55"/>
  <circle cx="394" cy="569" r="46" fill="#4f832c" opacity="0.55"/>
  <circle cx="294" cy="401" r="33" fill="#546e30" opacity="0.55"/>
  <circle cx="555" cy="446" r="31" fill="#3f8045" opacity="0.55"/>
  <circle cx="603" cy="619" r="31" fill="#497130" opacity="0.55"/>
  <circle cx="355" cy="576" r="34" fill="#3d802b" opacity="0.55"/>
  <circle cx="668" cy="557" r="43" fill="#386438" opacity="0.55"/>
  <circle cx="695" cy="514" r="32" fill="#317628" opacity="0.55"/>
  <circle cx="546" cy="487" r="34" fill="#307536" opacity="0.55"/>
  <circle cx="743" cy="498" r="41" fill="#3b5f25" opacity="0.55"/>
  <circle cx="286" cy="389" r="48" fill="#396b28" opacity="0.55"/>
  <circle cx="537" cy="515" r="48" fill="#436c36" opacity="0.55"/>
  <circle cx="670" cy="409" r="37" fill="#498543" opacity="0.55"/>
  <circle cx="493" cy="555" r="47" fill="#346739" opacity="0.55"/>
  <circle cx="336" cy="552" r="43" fill="#408641" opacity="0.55"/>
  <circle cx="424" cy="458" r="50" fill="#468738" opacity="0.55"/>
  <circle cx="582" cy="600" r="52" fill="#4f7b34" opacity="0.55"/>
  <circle cx="502" cy="424" r="33" fill="#4b6f35" opacity="0.55"/>
  <circle cx="598" cy="538" r="31" fill="#477434" opacity="0.55"/>
  <circle cx="532" cy="552" r="30" fill="#47603b" opacity="0.55"/>
  <circle cx="347" cy="450" r="41" fill="#457733" opacity="0.55"/>
  <circle cx="577" cy="438" r="44" fill="#3a6e3f" opacity="0.55"/>
  <circle cx="665" cy="506" r="47" fill="#547644" opacity="0.55"/>
  <circle cx="357" cy="565" r="45" fill="#507e37" opacity="0.55"/>
  <circle cx="285" cy="392" r="44" fill="#4e783e" opacity="0.55"/>
  <circle cx="579" cy="390" r="46" fill="#2a703a" opacity="0.55"/>
  <circle cx="613" cy="408" r="37" fill="#4a6e31" opacity="0.55"/>
  <circle cx="357" cy="518" r="41" fill="#38723a" opacity="0.55"/>
  <circle cx="526" cy="395" r="49" fill="#2f702e" opacity="0.55"/>
  <circle cx="717" cy="387" r="37" fill="#51783b" opacity="0.55"/>
  <circle cx="629" cy="612" r="42" fill="#33603d" opacity="0.55"/>
  <circle cx="439" cy="423" r="32" fill="#37692f" opacity="0.55"/>
  <circle cx="407" cy="414" r="39" fill="#356d37" opacity="0.55"/>
  <circle cx="660" cy="526" r="42" fill="#327639" opacity="0.55"/>
  <circle cx="420" cy="423" r="35" fill="#327738" opacity="0.55"/>
  <circle cx="298" cy="475" r="53" fill="#317429" opacity="0.55"/>
  <circle cx="385" cy="488" r="37" fill="#447434" opacity="0.55"/>
  <circle cx="530" cy="504" r="45" fill="#31652c" opacity="0.55"/>
  <circle cx="428" cy="424" r="32" fill="#49603f" opacity="0.55"/>
  <circle cx="481" cy="375" r="32" fill="#2c7637" opacity="0.55"/>
  <circle cx="395" cy="518" r="50" fill="#52772e" opacity="0.55"/>
  <circle cx="733" cy="530" r="33" fill="#3c7335" opacity="0.55"/>
  <circle cx="537" cy="572" r="52" fill="#4b733d" opacity="0.55"/>
  <circle cx="723" cy="406" r="35" fill="#37752c" opacity="0.55"/>
  <circle cx="536" cy="528" r="34" fill="#3b732b" opacity="0.55"/>
  <circle cx="334" cy="570" r="42" fill="#277335" opacity="0.55"/>
  <circle cx="434" cy="167" r="51" fill="#54a34e" opacity="0.92"/>
  <circle cx="374" cy="188" r="56" fill="#7ac255" opacity="0.92"/>
  <circle cx="477" cy="191" r="57" fill="#4d884b" opacity="0.92"/>
  <circle cx="504" cy="197" r="51" fill="#91c761" opacity="0.92"/>
  <circle cx="519" cy="221" r="49" fill="#458839" opacity="0.92"/>
  <circle cx="325" cy="224" r="58" fill="#6c974f" opacity="0.92"/>
  <circle cx="472" cy="230" r="57" fill="#81b04d" opacity="0.92"/>
  <circle cx="506" cy="249" r="44" fill="#cce293" opacity="0.92"/>
  <circle cx="618" cy="249" r="33" fill="#77b648" opacity="0.92"/>
  <circle cx="526" cy="251" r="43" fill="#4f7839" opacity="0.92"/>
  <circle cx="627" cy="252" r="52" fill="#5b9356" opacity="0.92"/>
  <circle cx="542" cy="263" r="51" fill="#76ad57" opacity="0.92"/>
  <circle cx="397" cy="264" r="49" fill="#97c665" opacity="0.92"/>
  <circle cx="708" cy="279" r="33" fill="#6f954a" opacity="0.92"/>
  <circle cx="680" cy="285" r="43" fill="#88b163" opacity="0.92"/>
  <circle cx="752" cy="287" r="52" fill="#7fbd63" opacity="0.92"/>
  <circle cx="362" cy="287" r="45" fill="#88af67" opacity="0.92"/>
  <circle cx="478" cy="288" r="59" fill="#b6d27f" opacity="0.92"/>
  <circle cx="309" cy="294" r="45" fill="#92bd6d" opacity="0.92"/>
  <circle cx="575" cy="297" r="48" fill="#86be6b" opacity="0.92"/>
  <circle cx="618" cy="304" r="52" fill="#87b451" opacity="0.92"/>
  <circle cx="257" cy="322" r="47" fill="#60ac5c" opacity="0.92"/>
  <circle cx="389" cy="323" r="42" fill="#bbd57b" opacity="0.92"/>
  <circle cx="600" cy="328" r="57" fill="#90c65d" opacity="0.92"/>
  <circle cx="690" cy="336" r="40" fill="#6a9542" opacity="0.92"/>
  <circle cx="742" cy="346" r="55" fill="#538d3d" opacity="0.92"/>
  <circle cx="547" cy="361" r="37" fill="#4c7f35" opacity="0.92"/>
  <circle cx="322" cy="361" r="39" fill="#428332" opacity="0.92"/>
  <circle cx="481" cy="369" r="46" fill="#b8d07e" opacity="0.92"/>
  <circle cx="717" cy="381" r="41" fill="#51a547" opacity="0.92"/>
  <circle cx="286" cy="383" r="45" fill="#b7cf95" opacity="0.92"/>
  <circle cx="579" cy="384" r="41" fill="#93b551" opacity="0.92"/>
  <circle cx="285" cy="386" r="43" fill="#5c9046" opacity="0.92"/>
  <circle cx="526" cy="389" r="39" fill="#63a455" opacity="0.92"/>
  <circle cx="636" cy="391" r="57" fill="#61a35a" opacity="0.92"/>
  <circle cx="294" cy="395" r="41" fill="#6da34f" opacity="0.92"/>
  <circle cx="723" cy="400" r="55" fill="#55732f" opacity="0.92"/>
  <circle cx="613" cy="402" r="57" fill="#779a5b" opacity="0.92"/>
  <circle cx="670" cy="403" r="37" fill="#7ab956" opacity="0.92"/>
  <circle cx="650" cy="408" r="35" fill="#94b46b" opacity="0.92"/>
  <circle cx="407" cy="408" r="44" fill="#59814e" opacity="0.92"/>
  <circle cx="439" cy="417" r="57" fill="#8ba86b" opacity="0.92"/>
  <circle cx="420" cy="417" r="42" fill="#42804d" opacity="0.92"/>
  <circle cx="428" cy="418" r="42" fill="#6ea45e" opacity="0.92"/>
  <circle cx="502" cy="418" r="34" fill="#4fa644" opacity="0.92"/>
  <circle cx="577" cy="432" r="39" fill="#496932" opacity="0.92"/>
  <circle cx="555" cy="440" r="47" fill="#62ae54" opacity="0.92"/>
  <circle cx="330" cy="441" r="38" fill="#63a74d" opacity="0.92"/>
  <circle cx="347" cy="444" r="38" fill="#66944a" opacity="0.92"/>
  <circle cx="446" cy="448" r="39" fill="#6ba64a" opacity="0.92"/>
  <circle cx="424" cy="452" r="53" fill="#769d5d" opacity="0.92"/>
  <circle cx="628" cy="453" r="53" fill="#7bbe65" opacity="0.92"/>
  <circle cx="623" cy="454" r="33" fill="#61a343" opacity="0.92"/>
  <circle cx="708" cy="466" r="36" fill="#428e46" opacity="0.92"/>
  <circle cx="298" cy="469" r="53" fill="#66a15e" opacity="0.92"/>
  <circle cx="546" cy="481" r="39" fill="#8cbd59" opacity="0.92"/>
  <circle cx="385" cy="482" r="44" fill="#8cc06a" opacity="0.92"/>
  <circle cx="743" cy="492" r="49" fill="#486f40" opacity="0.92"/>
  <circle cx="530" cy="498" r="53" fill="#69944a" opacity="0.92"/>
  <circle cx="665" cy="500" r="40" fill="#60a059" opacity="0.92"/>
  <circle cx="695" cy="508" r="58" fill="#5d8e33" opacity="0.92"/>
  <circle cx="537" cy="509" r="49" fill="#6aa44b" opacity="0.92"/>
  <circle cx="395" cy="512" r="49" fill="#53963e" opacity="0.92"/>
  <circle cx="357" cy="512" r="53" fill="#599141" opacity="0.92"/>
  <circle cx="298" cy="518" r="56" fill="#5c9149" opacity="0.92"/>
  <circle cx="660" cy="520" r="47" fill="#537934" opacity="0.92"/>
  <circle cx="536" cy="522" r="50" fill="#5b893b" opacity="0.92"/>
  <circle cx="733" cy="524" r="41" fill="#87c14e" opacity="0.92"/>
  <circle cx="355" cy="529" r="40" fill="#4e803e" opacity="0.92"/>
  <circle cx="598" cy="532" r="34" fill="#5d953a" opacity="0.92"/>
  <circle cx="671" cy="537" r="37" fill="#83a446" opacity="0.92"/>
  <circle cx="532" cy="546" r="50" fill="#497145" opacity="0.92"/>
  <circle cx="336" cy="546" r="35" fill="#74a254" opacity="0.92"/>
  <circle cx="493" cy="549" r="42" fill="#619a42" opacity="0.92"/>
  <circle cx="668" cy="551" r="56" fill="#72a844" opacity="0.92"/>
  <circle cx="357" cy="559" r="52" fill="#599542" opacity="0.92"/>
  <circle cx="394" cy="563" r="54" fill="#77bc64" opacity="0.92"/>
  <circle cx="334" cy="564" r="53" fill="#4e9859" opacity="0.92"/>
  <circle cx="537" cy="566" r="43" fill="#599f44" opacity="0.92"/>
  <circle cx="355" cy="570" r="57" fill="#469631" opacity="0.92"/>
  <circle cx="582" cy="594" r="38" fill="#59843d" opacity="0.92"/>
  <circle cx="599" cy="598" r="39" fill="#4a6b22" opacity="0.92"/>
  <circle cx="629" cy="606" r="44" fill="#62913d" opacity="0.92"/>
  <circle cx="603" cy="613" r="56" fill="#6aa644" opacity="0.92"/>
  <circle cx="551" cy="627" r="58" fill="#407a22" opacity="0.92"/>
  <circle cx="498" cy="633" r="33" fill="#74af50" opacity="0.92"/>
  <circle cx="478" cy="622" r="27" fill="#45722b" opacity="0.9"/>
  <circle cx="551" cy="622" r="24" fill="#3c6f2b" opacity="0.9"/>
  <circle cx="291" cy="519" r="34" fill="#33753b" opacity="0.9"/>
  <circle cx="408" cy="179" r="33" fill="#a2cd73" opacity="0.9"/>
  <circle cx="639" cy="188" r="24" fill="#78a853" opacity="0.9"/>
  <circle cx="497" cy="160" r="20" fill="#b9dd76" opacity="0.9"/>
  <circle cx="683" cy="569" r="33" fill="#416631" opacity="0.9"/>
  <circle cx="440" cy="615" r="20" fill="#3f6526" opacity="0.9"/>
  <circle cx="318" cy="234" r="25" fill="#a0bf70" opacity="0.9"/>
  <circle cx="434" cy="614" r="31" fill="#307a37" opacity="0.9"/>
  <circle cx="261" cy="319" r="28" fill="#c0d579" opacity="0.9"/>
  <circle cx="498" cy="624" r="26" fill="#49662e" opacity="0.9"/>
  <circle cx="290" cy="518" r="33" fill="#4c702a" opacity="0.9"/>
  <circle cx="419" cy="175" r="21" fill="#b1d081" opacity="0.9"/>
  <circle cx="731" cy="522" r="20" fill="#3d7537" opacity="0.9"/>
  <circle cx="286" cy="513" r="20" fill="#3a6c3a" opacity="0.9"/>
  <circle cx="710" cy="238" r="29" fill="#71a149" opacity="0.9"/>
  <circle cx="249" cy="367" r="34" fill="#a0c26d" opacity="0.9"/>
  <circle cx="775" cy="415" r="31" fill="#416e32" opacity="0.9"/>
  <circle cx="647" cy="592" r="23" fill="#416c3f" opacity="0.9"/>
  <circle cx="667" cy="580" r="22" fill="#3e6523" opacity="0.9"/>
  <circle cx="463" cy="620" r="22" fill="#3f7737" opacity="0.9"/>
  <circle cx="613" cy="177" r="32" fill="#61a13e" opacity="0.9"/>
  <circle cx="710" cy="546" r="23" fill="#3c6f3c" opacity="0.9"/>
  <circle cx="763" cy="319" r="27" fill="#7cab47" opacity="0.9"/>
  <circle cx="269" cy="484" r="27" fill="#397245" opacity="0.9"/>
  <circle cx="257" cy="452" r="20" fill="#316d3f" opacity="0.9"/>
  <circle cx="252" cy="350" r="24" fill="#afbd6f" opacity="0.9"/>
  <circle cx="506" cy="624" r="30" fill="#326e39" opacity="0.9"/>
  <circle cx="748" cy="498" r="32" fill="#277726" opacity="0.9"/>
  <circle cx="616" cy="606" r="21" fill="#4a8239" opacity="0.9"/>
  <circle cx="564" cy="164" r="25" fill="#679b3d" opacity="0.9"/>
  <circle cx="286" cy="271" r="27" fill="#bde299" opacity="0.9"/>
  <circle cx="293" cy="262" r="29" fill="#a5c977" opacity="0.9"/>
  <circle cx="297" cy="527" r="19" fill="#2f7626" opacity="0.9"/>
  <circle cx="348" cy="210" r="33" fill="#bcdfa4" opacity="0.9"/>
  <circle cx="722" cy="533" r="20" fill="#336427" opacity="0.9"/>
  <circle cx="395" cy="601" r="19" fill="#3e7031" opacity="0.9"/>
  <circle cx="587" cy="169" r="34" fill="#7da061" opacity="0.9"/>
  <circle cx="258" cy="457" r="22" fill="#54733b" opacity="0.9"/>
  <circle cx="635" cy="186" r="29" fill="#6eaf54" opacity="0.9"/>
  <circle cx="348" cy="574" r="34" fill="#446f42" opacity="0.9"/>
  <circle cx="599" cy="173" r="34" fill="#56853a" opacity="0.9"/>
  <circle cx="619" cy="605" r="20" fill="#4b6f2c" opacity="0.9"/>
  <circle cx="300" cy="253" r="20" fill="#b7c976" opacity="0.9"/>
  <circle cx="253" cy="344" r="32" fill="#c0ca86" opacity="0.9"/>
  <circle cx="626" cy="182" r="24" fill="#709f4b" opacity="0.9"/>
  <circle cx="251" cy="354" r="34" fill="#bbca85" opacity="0.9"/>
  <circle cx="775" cy="363" r="22" fill="#87b450" opacity="0.9"/>
  <circle cx="318" cy="234" r="21" fill="#9acb7e" opacity="0.9"/>
  <circle cx="774" cy="359" r="33" fill="#518d44" opacity="0.9"/>
  <circle cx="600" cy="173" r="23" fill="#87c15a" opacity="0.9"/>
  <circle cx="776" cy="399" r="24" fill="#486d2e" opacity="0.9"/>
  <circle cx="439" cy="169" r="30" fill="#c5d197" opacity="0.9"/>
  <circle cx="273" cy="292" r="30" fill="#afca85" opacity="0.9"/>
  <circle cx="754" cy="486" r="34" fill="#29732f" opacity="0.9"/>
  <circle cx="249" cy="418" r="35" fill="#3d7d2f" opacity="0.9"/>
  <circle cx="457" cy="165" r="27" fill="#d2de9b" opacity="0.9"/>
  <circle cx="676" cy="210" r="31" fill="#85a84f" opacity="0.9"/>
  <circle cx="663" cy="583" r="29" fill="#2f6530" opacity="0.9"/>
  <circle cx="729" cy="525" r="32" fill="#356b33" opacity="0.9"/>
  <circle cx="284" cy="274" r="30" fill="#bad580" opacity="0.9"/>
  <circle cx="632" cy="599" r="35" fill="#407925" opacity="0.9"/>
  <circle cx="252" cy="350" r="21" fill="#adbf6c" opacity="0.9"/>
  <circle cx="369" cy="587" r="32" fill="#396d33" opacity="0.9"/>
  <circle cx="477" cy="622" r="25" fill="#306837" opacity="0.9"/>
  <circle cx="543" cy="623" r="24" fill="#4a6537" opacity="0.9"/>
  <circle cx="414" cy="608" r="30" fill="#276d23" opacity="0.9"/>
  <circle cx="309" cy="541" r="22" fill="#33772d" opacity="0.9"/>
  <circle cx="736" cy="516" r="19" fill="#3a6e39" opacity="0.9"/>
  <circle cx="443" cy="616" r="21" fill="#397d3c" opacity="0.9"/>
  <circle cx="264" cy="311" r="35" fill="#b3c776" opacity="0.9"/>
  <circle cx="411" cy="177" r="31" fill="#bdca85" opacity="0.9"/>
  <circle cx="551" cy="162" r="23" fill="#8bb665" opacity="0.9"/>
  <circle cx="274" cy="494" r="21" fill="#367937" opacity="0.9"/>
  <circle cx="274" cy="290" r="23" fill="#c0d37c" opacity="0.9"/>
  <circle cx="758" cy="476" r="24" fill="#2d6b37" opacity="0.9"/>
  <circle cx="420" cy="338" r="31" fill="url(#dapple)" opacity="0.5"/>
  <circle cx="415" cy="266" r="36" fill="url(#dapple)" opacity="0.5"/>
  <circle cx="536" cy="229" r="26" fill="url(#dapple)" opacity="0.5"/>
  <circle cx="362" cy="249" r="33" fill="url(#dapple)" opacity="0.5"/>
  <circle cx="456" cy="332" r="24" fill="url(#dapple)" opacity="0.5"/>
  <circle cx="510" cy="254" r="38" fill="url(#dapple)" opacity="0.5"/>
  <circle cx="425" cy="304" r="40" fill="url(#dapple)" opacity="0.5"/>
  <circle cx="523" cy="308" r="23" fill="url(#dapple)" opacity="0.5"/>
  <circle cx="409" cy="335" r="39" fill="url(#dapple)" opacity="0.5"/>
  <circle cx="518" cy="310" r="24" fill="url(#dapple)" opacity="0.5"/>
  <circle cx="403" cy="289" r="25" fill="url(#dapple)" opacity="0.5"/>
  <circle cx="416" cy="271" r="37" fill="url(#dapple)" opacity="0.5"/>
  <circle cx="438" cy="313" r="28" fill="url(#dapple)" opacity="0.5"/>
  <circle cx="487" cy="309" r="23" fill="url(#dapple)" opacity="0.5"/>
  <ellipse cx="512" cy="525" rx="216" ry="73" fill="#1d4a31" opacity="0.20" filter="url(#soft)"/>
  <circle cx="501" cy="223" r="16" fill="#1d4a31" opacity="0.18"/><circle cx="501" cy="209" r="16" fill="#E8572A"/><circle cx="496" cy="203" r="5" fill="#F7A06A" opacity="0.85"/>
  <circle cx="575" cy="371" r="15" fill="#1d4a31" opacity="0.18"/><circle cx="575" cy="358" r="15" fill="#E8572A"/><circle cx="570" cy="353" r="5" fill="#F7A06A" opacity="0.85"/>
  <circle cx="407" cy="447" r="16" fill="#1d4a31" opacity="0.18"/><circle cx="407" cy="432" r="16" fill="#E8572A"/><circle cx="401" cy="427" r="5" fill="#F7A06A" opacity="0.85"/>
  <circle cx="406" cy="568" r="14" fill="#1d4a31" opacity="0.18"/><circle cx="406" cy="556" r="14" fill="#E8572A"/><circle cx="401" cy="551" r="4" fill="#F7A06A" opacity="0.85"/>
  <circle cx="325" cy="351" r="16" fill="#1d4a31" opacity="0.18"/><circle cx="325" cy="337" r="16" fill="#E8572A"/><circle cx="320" cy="332" r="5" fill="#F7A06A" opacity="0.85"/>
  <circle cx="698" cy="445" r="13" fill="#1d4a31" opacity="0.18"/><circle cx="698" cy="434" r="13" fill="#E8572A"/><circle cx="694" cy="430" r="4" fill="#F7A06A" opacity="0.85"/>
  <circle cx="474" cy="454" r="15" fill="#1d4a31" opacity="0.18"/><circle cx="474" cy="440" r="15" fill="#E8572A"/><circle cx="469" cy="435" r="5" fill="#F7A06A" opacity="0.85"/>
  <circle cx="545" cy="483" r="15" fill="#1d4a31" opacity="0.18"/><circle cx="545" cy="470" r="15" fill="#E8572A"/><circle cx="541" cy="465" r="5" fill="#F7A06A" opacity="0.85"/>
  <circle cx="366" cy="469" r="15" fill="#1d4a31" opacity="0.18"/><circle cx="366" cy="456" r="15" fill="#E8572A"/><circle cx="361" cy="451" r="5" fill="#F7A06A" opacity="0.85"/>
  <circle cx="448" cy="236" r="17" fill="#1d4a31" opacity="0.18"/><circle cx="448" cy="221" r="17" fill="#E8572A"/><circle cx="442" cy="215" r="5" fill="#F7A06A" opacity="0.85"/>
  <circle cx="361" cy="326" r="15" fill="#1d4a31" opacity="0.18"/><circle cx="361" cy="312" r="15" fill="#E8572A"/><circle cx="357" cy="307" r="5" fill="#F7A06A" opacity="0.85"/>
  <circle cx="399" cy="541" r="13" fill="#1d4a31" opacity="0.18"/><circle cx="399" cy="530" r="13" fill="#E8572A"/><circle cx="395" cy="526" r="4" fill="#F7A06A" opacity="0.85"/>
  <circle cx="656" cy="357" r="16" fill="#1d4a31" opacity="0.18"/><circle cx="656" cy="343" r="16" fill="#E8572A"/><circle cx="651" cy="338" r="5" fill="#F7A06A" opacity="0.85"/>
  <circle cx="490" cy="355" r="14" fill="#1d4a31" opacity="0.18"/><circle cx="490" cy="342" r="14" fill="#E8572A"/><circle cx="485" cy="337" r="5" fill="#F7A06A" opacity="0.85"/>
  <circle cx="453" cy="450" r="16" fill="#1d4a31" opacity="0.18"/><circle cx="453" cy="436" r="16" fill="#E8572A"/><circle cx="448" cy="431" r="5" fill="#F7A06A" opacity="0.85"/>
  <circle cx="353" cy="480" r="12" fill="#1d4a31" opacity="0.18"/><circle cx="353" cy="469" r="12" fill="#E8572A"/><circle cx="350" cy="464" r="4" fill="#F7A06A" opacity="0.85"/>
  <circle cx="645" cy="360" r="16" fill="#1d4a31" opacity="0.18"/><circle cx="645" cy="346" r="16" fill="#E8572A"/><circle cx="640" cy="340" r="5" fill="#F7A06A" opacity="0.85"/>
  <circle cx="518" cy="349" r="16" fill="#1d4a31" opacity="0.18"/><circle cx="518" cy="335" r="16" fill="#E8572A"/><circle cx="513" cy="330" r="5" fill="#F7A06A" opacity="0.85"/>
  <path d="M314 812 L322 854 Q 360 864 398 854 L406 812 Z" fill="#a9763f"/><path d="M314 812 Q 360 798 406 812" stroke="#7c4f28" stroke-width="6" fill="none"/><ellipse cx="344" cy="810" rx="14" ry="12" fill="#E8572A"/><ellipse cx="370" cy="808" rx="14" ry="12" fill="#E8572A"/><ellipse cx="357" cy="818" rx="13" ry="11" fill="#F27A45"/>
  <ellipse cx="600" cy="850" rx="13" ry="11" fill="#E8572A"/><ellipse cx="636" cy="858" rx="12" ry="10" fill="#F27A45"/>
</svg>