<svg xmlns="http://www.w3.org/2000/svg" viewBox="0 0 1024 1024" width="1024" height="1024">
  <defs>
    <radialGradient id="baseG" cx="40%" cy="30%" r="78%">
      <stop offset="0%" stop-color="#7FC68A"/>
      <stop offset="55%" stop-color="#46A06A"/>
      <stop offset="100%" stop-color="#2C7A4F"/>
    </radialGradient>
    <radialGradient id="baseGold" cx="42%" cy="30%" r="78%">
      <stop offset="0%" stop-color="#EAD46A"/>
      <stop offset="55%" stop-color="#C9A227"/>
      <stop offset="100%" stop-color="#8A7A2E"/>
    </radialGradient>
    <linearGradient id="trunk" x1="0" y1="0" x2="1" y2="0">
      <stop offset="0%" stop-color="#B5894F"/>
      <stop offset="45%" stop-color="#8A5E38"/>
      <stop offset="100%" stop-color="#5E3F26"/>
    </linearGradient>
    <radialGradient id="soil" cx="50%" cy="36%" r="68%">
      <stop offset="0%" stop-color="#946740"/>
      <stop offset="100%" stop-color="#5A3A24"/>
    </radialGradient>
    <radialGradient id="dapple" cx="50%" cy="50%" r="50%">
      <stop offset="0%" stop-color="#CBEFB8" stop-opacity="0.9"/>
      <stop offset="100%" stop-color="#CBEFB8" stop-opacity="0"/>
    </radialGradient>
    <radialGradient id="aura" cx="50%" cy="50%" r="50%">
      <stop offset="0%" stop-color="#ffffff" stop-opacity="0.0"/>
      <stop offset="60%" stop-color="#ffffff" stop-opacity="0.0"/>
    </radialGradient>
    <filter id="cshadow" x="-40%" y="-40%" width="180%" height="180%">
      <feDropShadow dx="0" dy="16" stdDeviation="18" flood-color="#143526" flood-opacity="0.30"/>
    </filter>
    <filter id="soft" x="-50%" y="-50%" width="200%" height="200%"><feGaussianBlur stdDeviation="8"/></filter>
    <filter id="glow" x="-80%" y="-80%" width="260%" height="260%"><feGaussianBlur stdDeviation="26"/></filter>
  </defs>
<ellipse cx="512" cy="906" rx="265" ry="46" fill="#123121" opacity="0.30" filter="url(#soft)"/>
  <ellipse cx="512" cy="874" rx="234" ry="60" fill="url(#soil)"/>
  <ellipse cx="512" cy="860" rx="234" ry="48" fill="#9A6C44" opacity="0.40"/>
  <path d="M276 858 q -5 -10 -2 -16 q 6 9 2 16 z" fill="#60ab5a" opacity="0.9"/>
  <path d="M295 863 q -5 -9 -2 -15 q 5 8 2 15 z" fill="#50ad75" opacity="0.9"/>
  <path d="M309 865 q 5 -11 2 -18 q 6 10 2 18 z" fill="#61ac7b" opacity="0.9"/>
  <path d="M325 864 q -4 -17 -2 -28 q 5 15 1 28 z" fill="#51a975" opacity="0.9"/>
  <path d="M344 860 q -2 -14 -1 -23 q 6 13 2 23 z" fill="#60a05a" opacity="0.9"/>
  <path d="M362 856 q -2 -15 -1 -25 q 5 14 2 25 z" fill="#62ae62" opacity="0.9"/>
  <path d="M385 852 q 1 -15 0 -25 q 5 14 1 25 z" fill="#5fbd72" opacity="0.9"/>
  <path d="M397 851 q -1 -18 -0 -30 q 4 16 1 30 z" fill="#68a369" opacity="0.9"/>
  <path d="M412 854 q 1 -15 0 -25 q 6 14 2 25 z" fill="#6ca971" opacity="0.9"/>
  <path d="M435 858 q 4 -14 2 -23 q 5 13 2 23 z" fill="#6faf6f" opacity="0.9"/>
  <path d="M447 863 q 6 -15 2 -25 q 6 14 2 25 z" fill="#6aa865" opacity="0.9"/>
  <path d="M470 865 q -4 -9 -2 -14 q 5 8 2 14 z" fill="#51a073" opacity="0.9"/>
  <path d="M482 864 q 4 -11 2 -18 q 5 10 2 18 z" fill="#4fae6b" opacity="0.9"/>
  <path d="M507 860 q -3 -16 -1 -27 q 7 15 2 27 z" fill="#5baa77" opacity="0.9"/>
  <path d="M525 855 q -3 -10 -1 -16 q 5 9 1 16 z" fill="#55af6d" opacity="0.9"/>
  <path d="M535 852 q -2 -8 -1 -14 q 5 8 2 14 z" fill="#61c070" opacity="0.9"/>
  <path d="M555 851 q -5 -14 -2 -24 q 6 13 2 24 z" fill="#6dba77" opacity="0.9"/>
  <path d="M575 854 q -5 -12 -2 -20 q 5 11 2 20 z" fill="#63a05a" opacity="0.9"/>
  <path d="M587 858 q -5 -10 -2 -17 q 5 9 2 17 z" fill="#4da35b" opacity="0.9"/>
  <path d="M605 863 q 1 -9 1 -14 q 7 8 2 14 z" fill="#52a764" opacity="0.9"/>
  <path d="M623 865 q 6 -10 2 -16 q 7 9 2 16 z" fill="#5daf5b" opacity="0.9"/>
  <path d="M637 864 q 4 -12 2 -19 q 5 11 1 19 z" fill="#529e7a" opacity="0.9"/>
  <path d="M659 860 q -6 -10 -2 -16 q 6 9 2 16 z" fill="#60c177" opacity="0.9"/>
  <path d="M678 855 q -4 -11 -2 -18 q 5 10 2 18 z" fill="#68b174" opacity="0.9"/>
  <path d="M692 852 q 6 -11 2 -18 q 6 10 2 18 z" fill="#6bbb75" opacity="0.9"/>
  <path d="M713 851 q -2 -11 -1 -18 q 6 10 2 18 z" fill="#4e9f62" opacity="0.9"/>
  <path d="M726 854 q -1 -15 -0 -25 q 7 14 2 25 z" fill="#6ec17a" opacity="0.9"/>
  <ellipse cx="369" cy="881" rx="7" ry="4" fill="#7a5a3e" opacity="0.55"/>
  <ellipse cx="423" cy="887" rx="11" ry="6" fill="#7a5a3e" opacity="0.55"/>
  <ellipse cx="484" cy="887" rx="10" ry="3" fill="#7a5a3e" opacity="0.55"/>
  <ellipse cx="543" cy="891" rx="10" ry="5" fill="#7a5a3e" opacity="0.55"/>
  <ellipse cx="596" cy="880" rx="10" ry="4" fill="#7a5a3e" opacity="0.55"/>
  <ellipse cx="657" cy="892" rx="8" ry="4" fill="#7a5a3e" opacity="0.55"/>
<path d="M457 874 C 472 744 491 530 491 430 L 533 430 C 533 530 552 744 567 874 Q 512 890 457 874 Z" fill="url(#trunk)"/>
  <path d="M457 874 q -38 -4 -70 20 q 34 -2 70 -8 z" fill="url(#trunk)"/>
  <path d="M567 874 q 38 -4 70 20 q -34 -2 -70 -8 z" fill="url(#trunk)"/>
  <path d="M504 450 C 497 704 494 814 484 866" stroke="#C49A60" stroke-width="7" fill="none" opacity="0.5" stroke-linecap="round"/>
  <path d="M521 470 C 528 714 531 814 540 866" stroke="#4E331F" stroke-width="5" fill="none" opacity="0.4" stroke-linecap="round"/>
  <path d="M512 540 Q 571 504 644 468" stroke="url(#trunk)" stroke-width="20" fill="none" stroke-linecap="round"/>
  <path d="M512 540 Q 453 504 380 468" stroke="url(#trunk)" stroke-width="20" fill="none" stroke-linecap="round"/>
<g filter="url(#cshadow)"><ellipse cx="512" cy="400" rx="255" ry="230" fill="url(#baseG)"/></g>
  <circle cx="382" cy="417" r="30" fill="#2d8345" opacity="0.55"/>
  <circle cx="720" cy="407" r="29" fill="#238646" opacity="0.55"/>
  <circle cx="294" cy="443" r="42" fill="#327644" opacity="0.55"/>
  <circle cx="356" cy="550" r="44" fill="#23895d" opacity="0.55"/>
  <circle cx="480" cy="610" r="38" fill="#25644b" opacity="0.55"/>
  <circle cx="579" cy="566" r="30" fill="#346552" opacity="0.55"/>
  <circle cx="702" cy="520" r="30" fill="#207844" opacity="0.55"/>
  <circle cx="606" cy="463" r="49" fill="#265741" opacity="0.55"/>
  <circle cx="575" cy="583" r="34" fill="#20734e" opacity="0.55"/>
  <circle cx="355" cy="577" r="29" fill="#358957" opacity="0.55"/>
  <circle cx="663" cy="431" r="36" fill="#17633c" opacity="0.55"/>
  <circle cx="666" cy="531" r="31" fill="#2d7146" opacity="0.55"/>
  <circle cx="469" cy="500" r="40" fill="#186436" opacity="0.55"/>
  <circle cx="418" cy="415" r="45" fill="#2f794a" opacity="0.55"/>
  <circle cx="571" cy="613" r="33" fill="#347257" opacity="0.55"/>
  <circle cx="391" cy="596" r="45" fill="#225147" opacity="0.55"/>
  <circle cx="398" cy="506" r="37" fill="#306b38" opacity="0.55"/>
  <circle cx="690" cy="570" r="47" fill="#2f8158" opacity="0.55"/>
  <circle cx="668" cy="456" r="43" fill="#2a815f" opacity="0.55"/>
  <circle cx="637" cy="392" r="32" fill="#237144" opacity="0.55"/>
  <circle cx="292" cy="474" r="39" fill="#166433" opacity="0.55"/>
  <circle cx="301" cy="441" r="36" fill="#14573c" opacity="0.55"/>
  <circle cx="449" cy="442" r="46" fill="#397751" opacity="0.55"/>
  <circle cx="287" cy="422" r="45" fill="#176334" opacity="0.55"/>
  <circle cx="530" cy="436" r="31" fill="#146a46" opacity="0.55"/>
  <circle cx="652" cy="530" r="44" fill="#2b824b" opacity="0.55"/>
  <circle cx="429" cy="495" r="33" fill="#358549" opacity="0.55"/>
  <circle cx="278" cy="472" r="42" fill="#277153" opacity="0.55"/>
  <circle cx="507" cy="553" r="50" fill="#297d54" opacity="0.55"/>
  <circle cx="492" cy="563" r="43" fill="#236052" opacity="0.55"/>
  <circle cx="417" cy="418" r="29" fill="#3a7b5b" opacity="0.55"/>
  <circle cx="411" cy="495" r="29" fill="#135a3e" opacity="0.55"/>
  <circle cx="369" cy="502" r="39" fill="#1b6d3f" opacity="0.55"/>
  <circle cx="507" cy="424" r="31" fill="#28634a" opacity="0.55"/>
  <circle cx="454" cy="423" r="51" fill="#286e45" opacity="0.55"/>
  <circle cx="732" cy="444" r="34" fill="#1b5146" opacity="0.55"/>
  <circle cx="677" cy="532" r="30" fill="#236b47" opacity="0.55"/>
  <circle cx="352" cy="576" r="40" fill="#175c3e" opacity="0.55"/>
  <circle cx="600" cy="615" r="48" fill="#2f854a" opacity="0.55"/>
  <circle cx="338" cy="414" r="43" fill="#1d7650" opacity="0.55"/>
  <circle cx="636" cy="487" r="48" fill="#246540" opacity="0.55"/>
  <circle cx="636" cy="550" r="42" fill="#2a6f4c" opacity="0.55"/>
  <circle cx="579" cy="186" r="33" fill="#55a076" opacity="0.92"/>
  <circle cx="598" cy="186" r="36" fill="#3aad74" opacity="0.92"/>
  <circle cx="558" cy="197" r="44" fill="#2e8551" opacity="0.92"/>
  <circle cx="574" cy="199" r="40" fill="#469169" opacity="0.92"/>
  <circle cx="376" cy="209" r="47" fill="#8bc298" opacity="0.92"/>
  <circle cx="396" cy="210" r="46" fill="#c1e4b1" opacity="0.92"/>
  <circle cx="581" cy="220" r="50" fill="#20875a" opacity="0.92"/>
  <circle cx="564" cy="242" r="36" fill="#31966b" opacity="0.92"/>
  <circle cx="381" cy="248" r="35" fill="#aed8a7" opacity="0.92"/>
  <circle cx="491" cy="253" r="54" fill="#9ac5a5" opacity="0.92"/>
  <circle cx="508" cy="255" r="36" fill="#439e62" opacity="0.92"/>
  <circle cx="569" cy="256" r="54" fill="#448062" opacity="0.92"/>
  <circle cx="657" cy="276" r="43" fill="#409076" opacity="0.92"/>
  <circle cx="561" cy="277" r="33" fill="#4cb07d" opacity="0.92"/>
  <circle cx="509" cy="281" r="34" fill="#b2ecaf" opacity="0.92"/>
  <circle cx="647" cy="286" r="51" fill="#5e9d81" opacity="0.92"/>
  <circle cx="557" cy="289" r="40" fill="#397d44" opacity="0.92"/>
  <circle cx="594" cy="289" r="34" fill="#3d8d5d" opacity="0.92"/>
  <circle cx="387" cy="302" r="42" fill="#3d864b" opacity="0.92"/>
  <circle cx="421" cy="307" r="48" fill="#328d58" opacity="0.92"/>
  <circle cx="666" cy="311" r="32" fill="#398142" opacity="0.92"/>
  <circle cx="409" cy="313" r="53" fill="#53a17d" opacity="0.92"/>
  <circle cx="397" cy="322" r="39" fill="#30734a" opacity="0.92"/>
  <circle cx="399" cy="324" r="38" fill="#3a8a48" opacity="0.92"/>
  <circle cx="650" cy="334" r="49" fill="#42b37c" opacity="0.92"/>
  <circle cx="436" cy="346" r="45" fill="#319c55" opacity="0.92"/>
  <circle cx="699" cy="347" r="40" fill="#559c79" opacity="0.92"/>
  <circle cx="457" cy="348" r="55" fill="#7ec78a" opacity="0.92"/>
  <circle cx="551" cy="354" r="37" fill="#2d815c" opacity="0.92"/>
  <circle cx="307" cy="355" r="37" fill="#38795b" opacity="0.92"/>
  <circle cx="447" cy="363" r="50" fill="#a2d2a2" opacity="0.92"/>
  <circle cx="518" cy="370" r="35" fill="#2d8f68" opacity="0.92"/>
  <circle cx="751" cy="372" r="56" fill="#207050" opacity="0.92"/>
  <circle cx="503" cy="376" r="44" fill="#bcdf9a" opacity="0.92"/>
  <circle cx="637" cy="386" r="49" fill="#389169" opacity="0.92"/>
  <circle cx="720" cy="401" r="49" fill="#2d7d59" opacity="0.92"/>
  <circle cx="338" cy="408" r="53" fill="#3c8b5a" opacity="0.92"/>
  <circle cx="418" cy="409" r="44" fill="#3aa96e" opacity="0.92"/>
  <circle cx="382" cy="411" r="53" fill="#218646" opacity="0.92"/>
  <circle cx="417" cy="412" r="34" fill="#3e9671" opacity="0.92"/>
  <circle cx="287" cy="416" r="50" fill="#28895b" opacity="0.92"/>
  <circle cx="454" cy="417" r="46" fill="#529f6c" opacity="0.92"/>
  <circle cx="507" cy="418" r="42" fill="#50b273" opacity="0.92"/>
  <circle cx="663" cy="425" r="36" fill="#38915c" opacity="0.92"/>
  <circle cx="530" cy="430" r="50" fill="#54ac68" opacity="0.92"/>
  <circle cx="301" cy="435" r="54" fill="#2b7954" opacity="0.92"/>
  <circle cx="449" cy="436" r="34" fill="#3a7851" opacity="0.92"/>
  <circle cx="294" cy="437" r="37" fill="#429b70" opacity="0.92"/>
  <circle cx="732" cy="438" r="40" fill="#2b7f4b" opacity="0.92"/>
  <circle cx="668" cy="450" r="46" fill="#257b54" opacity="0.92"/>
  <circle cx="606" cy="457" r="40" fill="#2c6940" opacity="0.92"/>
  <circle cx="278" cy="466" r="42" fill="#36ac6d" opacity="0.92"/>
  <circle cx="292" cy="468" r="43" fill="#328761" opacity="0.92"/>
  <circle cx="636" cy="481" r="44" fill="#305434" opacity="0.92"/>
  <circle cx="411" cy="489" r="44" fill="#489365" opacity="0.92"/>
  <circle cx="429" cy="489" r="47" fill="#59a17f" opacity="0.92"/>
  <circle cx="469" cy="494" r="44" fill="#468b64" opacity="0.92"/>
  <circle cx="369" cy="496" r="31" fill="#398469" opacity="0.92"/>
  <circle cx="398" cy="500" r="40" fill="#2f735a" opacity="0.92"/>
  <circle cx="702" cy="514" r="52" fill="#327e51" opacity="0.92"/>
  <circle cx="652" cy="524" r="54" fill="#247846" opacity="0.92"/>
  <circle cx="666" cy="525" r="36" fill="#519861" opacity="0.92"/>
  <circle cx="677" cy="526" r="43" fill="#379762" opacity="0.92"/>
  <circle cx="636" cy="544" r="38" fill="#4dac5b" opacity="0.92"/>
  <circle cx="356" cy="544" r="36" fill="#55a077" opacity="0.92"/>
  <circle cx="507" cy="547" r="48" fill="#3b8b56" opacity="0.92"/>
  <circle cx="492" cy="557" r="49" fill="#338248" opacity="0.92"/>
  <circle cx="579" cy="560" r="56" fill="#348061" opacity="0.92"/>
  <circle cx="690" cy="564" r="53" fill="#3a9766" opacity="0.92"/>
  <circle cx="352" cy="570" r="31" fill="#329152" opacity="0.92"/>
  <circle cx="355" cy="571" r="31" fill="#2f8f54" opacity="0.92"/>
  <circle cx="575" cy="577" r="36" fill="#286c4e" opacity="0.92"/>
  <circle cx="391" cy="590" r="54" fill="#2b885d" opacity="0.92"/>
  <circle cx="480" cy="604" r="54" fill="#397458" opacity="0.92"/>
  <circle cx="571" cy="607" r="38" fill="#58ae81" opacity="0.92"/>
  <circle cx="600" cy="609" r="36" fill="#49a67a" opacity="0.92"/>
  <circle cx="368" cy="220" r="23" fill="#b3e2a8" opacity="0.9"/>
  <circle cx="640" cy="210" r="30" fill="#5fab76" opacity="0.9"/>
  <circle cx="319" cy="259" r="26" fill="#b8daa0" opacity="0.9"/>
  <circle cx="504" cy="621" r="27" fill="#225249" opacity="0.9"/>
  <circle cx="281" cy="316" r="25" fill="#77b981" opacity="0.9"/>
  <circle cx="761" cy="386" r="32" fill="#449957" opacity="0.9"/>
  <circle cx="404" cy="599" r="29" fill="#308a54" opacity="0.9"/>
  <circle cx="724" cy="284" r="22" fill="#5fa070" opacity="0.9"/>
  <circle cx="714" cy="269" r="27" fill="#479a60" opacity="0.9"/>
  <circle cx="303" cy="520" r="30" fill="#377056" opacity="0.9"/>
  <circle cx="662" cy="223" r="27" fill="#5ea36b" opacity="0.9"/>
  <circle cx="316" cy="263" r="23" fill="#beda9d" opacity="0.9"/>
  <circle cx="586" cy="189" r="25" fill="#227e4e" opacity="0.9"/>
  <circle cx="276" cy="473" r="22" fill="#1e613c" opacity="0.9"/>
  <circle cx="710" cy="265" r="25" fill="#53b165" opacity="0.9"/>
  <circle cx="484" cy="181" r="31" fill="#97cd99" opacity="0.9"/>
  <circle cx="275" cy="469" r="27" fill="#248246" opacity="0.9"/>
  <circle cx="607" cy="604" r="25" fill="#267e4e" opacity="0.9"/>
  <circle cx="609" cy="603" r="19" fill="#19754b" opacity="0.9"/>
  <circle cx="444" cy="188" r="30" fill="#ace39a" opacity="0.9"/>
  <circle cx="265" cy="435" r="28" fill="#1f6142" opacity="0.9"/>
  <circle cx="745" cy="320" r="21" fill="#3b735a" opacity="0.9"/>
  <circle cx="310" cy="530" r="29" fill="#196042" opacity="0.9"/>
  <circle cx="645" cy="213" r="29" fill="#4bac6d" opacity="0.9"/>
  <circle cx="759" cy="369" r="23" fill="#358d69" opacity="0.9"/>
  <circle cx="275" cy="471" r="23" fill="#236938" opacity="0.9"/>
  <circle cx="539" cy="620" r="26" fill="#218347" opacity="0.9"/>
  <circle cx="656" cy="219" r="30" fill="#2e8255" opacity="0.9"/>
  <circle cx="760" cy="376" r="22" fill="#2c724a" opacity="0.9"/>
  <circle cx="352" cy="231" r="28" fill="#97cea1" opacity="0.9"/>
  <circle cx="473" cy="182" r="26" fill="#85d092" opacity="0.9"/>
  <circle cx="757" cy="359" r="27" fill="#3fa166" opacity="0.9"/>
  <circle cx="434" cy="610" r="27" fill="#31845f" opacity="0.9"/>
  <circle cx="462" cy="184" r="27" fill="#7fbe7d" opacity="0.9"/>
  <circle cx="570" cy="615" r="20" fill="#20854e" opacity="0.9"/>
  <circle cx="701" cy="544" r="29" fill="#2a6248" opacity="0.9"/>
  <circle cx="538" cy="180" r="20" fill="#448d5c" opacity="0.9"/>
  <circle cx="391" cy="593" r="32" fill="#136944" opacity="0.9"/>
  <circle cx="629" cy="595" r="18" fill="#29593d" opacity="0.9"/>
  <circle cx="613" cy="198" r="19" fill="#358956" opacity="0.9"/>
  <circle cx="391" cy="593" r="27" fill="#2e664b" opacity="0.9"/>
  <circle cx="723" cy="518" r="25" fill="#2b7c5f" opacity="0.9"/>
  <circle cx="388" cy="592" r="26" fill="#175737" opacity="0.9"/>
  <circle cx="683" cy="239" r="33" fill="#419b60" opacity="0.9"/>
  <circle cx="571" cy="615" r="20" fill="#358249" opacity="0.9"/>
  <circle cx="728" cy="510" r="25" fill="#268144" opacity="0.9"/>
  <circle cx="682" cy="238" r="29" fill="#37815d" opacity="0.9"/>
  <circle cx="386" cy="591" r="26" fill="#337c4a" opacity="0.9"/>
  <circle cx="294" cy="508" r="24" fill="#337338" opacity="0.9"/>
  <circle cx="747" cy="475" r="20" fill="#146c36" opacity="0.9"/>
  <circle cx="597" cy="608" r="28" fill="#2e613f" opacity="0.9"/>
  <circle cx="633" cy="207" r="27" fill="#31845d" opacity="0.9"/>
  <circle cx="682" cy="238" r="28" fill="#398359" opacity="0.9"/>
  <circle cx="475" cy="182" r="32" fill="#99dda1" opacity="0.9"/>
  <circle cx="467" cy="183" r="27" fill="#9cc889" opacity="0.9"/>
  <circle cx="274" cy="333" r="19" fill="#acdf9c" opacity="0.9"/>
  <circle cx="332" cy="553" r="30" fill="#286544" opacity="0.9"/>
  <circle cx="519" cy="179" r="32" fill="#267347" opacity="0.9"/>
  <circle cx="742" cy="314" r="23" fill="#48a367" opacity="0.9"/>
  <circle cx="650" cy="216" r="33" fill="#3d8863" opacity="0.9"/>
  <circle cx="564" cy="616" r="28" fill="#29894b" opacity="0.9"/>
  <circle cx="339" cy="560" r="29" fill="#398a5e" opacity="0.9"/>
  <circle cx="643" cy="588" r="32" fill="#196653" opacity="0.9"/>
  <circle cx="761" cy="419" r="31" fill="#26864b" opacity="0.9"/>
  <circle cx="551" cy="618" r="18" fill="#2a5c3d" opacity="0.9"/>
  <circle cx="290" cy="502" r="23" fill="#1e7646" opacity="0.9"/>
  <circle cx="701" cy="544" r="26" fill="#378247" opacity="0.9"/>
  <circle cx="262" cy="410" r="33" fill="#1f7853" opacity="0.9"/>
  <circle cx="386" cy="367" r="24" fill="url(#dapple)" opacity="0.55"/>
  <circle cx="367" cy="300" r="40" fill="url(#dapple)" opacity="0.55"/>
  <circle cx="488" cy="266" r="38" fill="url(#dapple)" opacity="0.55"/>
  <circle cx="413" cy="357" r="31" fill="url(#dapple)" opacity="0.55"/>
  <circle cx="476" cy="313" r="33" fill="url(#dapple)" opacity="0.55"/>
  <circle cx="466" cy="377" r="31" fill="url(#dapple)" opacity="0.55"/>
  <circle cx="510" cy="316" r="22" fill="url(#dapple)" opacity="0.55"/>
  <circle cx="468" cy="370" r="29" fill="url(#dapple)" opacity="0.55"/>
  <circle cx="435" cy="333" r="26" fill="url(#dapple)" opacity="0.55"/>
  <circle cx="399" cy="314" r="23" fill="url(#dapple)" opacity="0.55"/>
  <circle cx="442" cy="305" r="30" fill="url(#dapple)" opacity="0.55"/>
  <circle cx="440" cy="322" r="36" fill="url(#dapple)" opacity="0.55"/>
  <ellipse cx="512" cy="526" rx="204" ry="69" fill="#1d4a31" opacity="0.22" filter="url(#soft)"/>
</svg>