<svg xmlns="http://www.w3.org/2000/svg" viewBox="0 0 1024 1024" width="1024" height="1024">
  <defs>
    <radialGradient id="baseG" cx="40%" cy="30%" r="78%">
      <stop offset="0%" stop-color="#7FC68A"/>
      <stop offset="55%" stop-color="#46A06A"/>
      <stop offset="100%" stop-color="#2C7A4F"/>
    </radialGradient>
    <radialGradient id="baseGold" cx="42%" cy="30%" r="78%">
      <stop offset="0%" stop-color="#EAD46A"/>
      <stop offset="55%" stop-color="#C9A227"/>
      <stop offset="100%" stop-color="#8A7A2E"/>
    </radialGradient>
    <linearGradient id="trunk" x1="0" y1="0" x2="1" y2="0">
      <stop offset="0%" stop-color="#B5894F"/>
      <stop offset="45%" stop-color="#8A5E38"/>
      <stop offset="100%" stop-color="#5E3F26"/>
    </linearGradient>
    <radialGradient id="soil" cx="50%" cy="36%" r="68%">
      <stop offset="0%" stop-color="#946740"/>
      <stop offset="100%" stop-color="#5A3A24"/>
    </radialGradient>
    <radialGradient id="dapple" cx="50%" cy="50%" r="50%">
      <stop offset="0%" stop-color="#CBEFB8" stop-opacity="0.9"/>
      <stop offset="100%" stop-color="#CBEFB8" stop-opacity="0"/>
    </radialGradient>
    <radialGradient id="aura" cx="50%" cy="50%" r="50%">
      <stop offset="0%" stop-color="#ffffff" stop-opacity="0.0"/>
      <stop offset="60%" stop-color="#ffffff" stop-opacity="0.0"/>
    </radialGradient>
    <filter id="cshadow" x="-40%" y="-40%" width="180%" height="180%">
      <feDropShadow dx="0" dy="16" stdDeviation="18" flood-color="#143526" flood-opacity="0.30"/>
    </filter>
    <filter id="soft" x="-50%" y="-50%" width="200%" height="200%"><feGaussianBlur stdDeviation="8"/></filter>
    <filter id="glow" x="-80%" y="-80%" width="260%" height="260%"><feGaussianBlur stdDeviation="26"/></filter>
  </defs>
<ellipse cx="512" cy="906" rx="237" ry="46" fill="#123121" opacity="0.30" filter="url(#soft)"/>
  <ellipse cx="512" cy="874" rx="209" ry="60" fill="url(#soil)"/>
  <ellipse cx="512" cy="860" rx="209" ry="48" fill="#9A6C44" opacity="0.40"/>
  <path d="M301 858 q -5 -10 -2 -16 q 6 9 2 16 z" fill="#60ab5a" opacity="0.9"/>
  <path d="M320 863 q -5 -9 -2 -15 q 5 8 2 15 z" fill="#50ad75" opacity="0.9"/>
  <path d="M334 865 q 5 -11 2 -18 q 6 10 2 18 z" fill="#61ac7b" opacity="0.9"/>
  <path d="M350 864 q -4 -17 -2 -28 q 5 15 1 28 z" fill="#51a975" opacity="0.9"/>
  <path d="M369 860 q -2 -14 -1 -23 q 6 13 2 23 z" fill="#60a05a" opacity="0.9"/>
  <path d="M386 856 q -2 -15 -1 -25 q 5 14 2 25 z" fill="#62ae62" opacity="0.9"/>
  <path d="M410 852 q 1 -15 0 -25 q 5 14 1 25 z" fill="#5fbd72" opacity="0.9"/>
  <path d="M422 851 q -1 -18 -0 -30 q 4 16 1 30 z" fill="#68a369" opacity="0.9"/>
  <path d="M437 854 q 1 -15 0 -25 q 6 14 2 25 z" fill="#6ca971" opacity="0.9"/>
  <path d="M460 858 q 4 -14 2 -23 q 5 13 2 23 z" fill="#6faf6f" opacity="0.9"/>
  <path d="M471 863 q 6 -15 2 -25 q 6 14 2 25 z" fill="#6aa865" opacity="0.9"/>
  <path d="M495 865 q -4 -9 -2 -14 q 5 8 2 14 z" fill="#51a073" opacity="0.9"/>
  <path d="M507 864 q 4 -11 2 -18 q 5 10 2 18 z" fill="#4fae6b" opacity="0.9"/>
  <path d="M532 860 q -3 -16 -1 -27 q 7 15 2 27 z" fill="#5baa77" opacity="0.9"/>
  <path d="M550 855 q -3 -10 -1 -16 q 5 9 1 16 z" fill="#55af6d" opacity="0.9"/>
  <path d="M560 852 q -2 -8 -1 -14 q 5 8 2 14 z" fill="#61c070" opacity="0.9"/>
  <path d="M580 851 q -5 -14 -2 -24 q 6 13 2 24 z" fill="#6dba77" opacity="0.9"/>
  <path d="M600 854 q -5 -12 -2 -20 q 5 11 2 20 z" fill="#63a05a" opacity="0.9"/>
  <path d="M611 858 q -5 -10 -2 -17 q 5 9 2 17 z" fill="#4da35b" opacity="0.9"/>
  <path d="M630 863 q 1 -9 1 -14 q 7 8 2 14 z" fill="#52a764" opacity="0.9"/>
  <path d="M647 865 q 6 -10 2 -16 q 7 9 2 16 z" fill="#5daf5b" opacity="0.9"/>
  <path d="M662 864 q 4 -12 2 -19 q 5 11 1 19 z" fill="#529e7a" opacity="0.9"/>
  <path d="M684 860 q -6 -10 -2 -16 q 6 9 2 16 z" fill="#60c177" opacity="0.9"/>
  <path d="M703 855 q -4 -11 -2 -18 q 5 10 2 18 z" fill="#68b174" opacity="0.9"/>
  <ellipse cx="384" cy="881" rx="10" ry="6" fill="#7a5a3e" opacity="0.55"/>
  <ellipse cx="442" cy="889" rx="10" ry="5" fill="#7a5a3e" opacity="0.55"/>
  <ellipse cx="483" cy="885" rx="8" ry="3" fill="#7a5a3e" opacity="0.55"/>
  <ellipse cx="530" cy="882" rx="7" ry="5" fill="#7a5a3e" opacity="0.55"/>
  <ellipse cx="595" cy="884" rx="11" ry="6" fill="#7a5a3e" opacity="0.55"/>
  <ellipse cx="645" cy="883" rx="7" ry="4" fill="#7a5a3e" opacity="0.55"/>

  <path d="M506 858 Q 512 720 512 648" stroke="url(#trunk)" stroke-width="22" fill="none" stroke-linecap="round"/>
  <g filter="url(#cshadow)"><ellipse cx="512" cy="600" rx="150" ry="130" fill="url(#baseG)"/></g>
  <circle cx="553" cy="619" r="23" fill="#2b6951" opacity="0.55"/>
  <circle cx="427" cy="640" r="21" fill="#398351" opacity="0.55"/>
  <circle cx="439" cy="629" r="19" fill="#2f7450" opacity="0.55"/>
  <circle cx="536" cy="611" r="25" fill="#21774b" opacity="0.55"/>
  <circle cx="429" cy="622" r="23" fill="#2e804f" opacity="0.55"/>
  <circle cx="409" cy="690" r="26" fill="#277749" opacity="0.55"/>
  <circle cx="514" cy="626" r="18" fill="#2d763d" opacity="0.55"/>
  <circle cx="487" cy="649" r="27" fill="#235241" opacity="0.55"/>
  <circle cx="362" cy="598" r="26" fill="#285438" opacity="0.55"/>
  <circle cx="422" cy="708" r="28" fill="#1e6531" opacity="0.55"/>
  <circle cx="571" cy="594" r="21" fill="#195134" opacity="0.55"/>
  <circle cx="406" cy="629" r="17" fill="#275138" opacity="0.55"/>
  <circle cx="368" cy="614" r="27" fill="#275f31" opacity="0.55"/>
  <circle cx="487" cy="472" r="27" fill="#226e4d" opacity="0.92"/>
  <circle cx="498" cy="477" r="27" fill="#8cd08f" opacity="0.92"/>
  <circle cx="523" cy="485" r="26" fill="#59b57a" opacity="0.92"/>
  <circle cx="515" cy="490" r="31" fill="#337557" opacity="0.92"/>
  <circle cx="578" cy="504" r="23" fill="#1e8660" opacity="0.92"/>
  <circle cx="617" cy="528" r="26" fill="#459a75" opacity="0.92"/>
  <circle cx="472" cy="537" r="23" fill="#377b42" opacity="0.92"/>
  <circle cx="420" cy="537" r="26" fill="#bcdc9c" opacity="0.92"/>
  <circle cx="483" cy="551" r="21" fill="#56a981" opacity="0.92"/>
  <circle cx="652" cy="565" r="32" fill="#2b7c4a" opacity="0.92"/>
  <circle cx="617" cy="570" r="27" fill="#5bac6d" opacity="0.92"/>
  <circle cx="460" cy="575" r="28" fill="#346e43" opacity="0.92"/>
  <circle cx="401" cy="584" r="24" fill="#93c389" opacity="0.92"/>
  <circle cx="571" cy="588" r="18" fill="#276e57" opacity="0.92"/>
  <circle cx="362" cy="592" r="25" fill="#3cad78" opacity="0.92"/>
  <circle cx="536" cy="605" r="29" fill="#245b48" opacity="0.92"/>
  <circle cx="368" cy="608" r="31" fill="#54b677" opacity="0.92"/>
  <circle cx="553" cy="613" r="25" fill="#2e8a55" opacity="0.92"/>
  <circle cx="429" cy="616" r="22" fill="#359a5b" opacity="0.92"/>
  <circle cx="514" cy="620" r="20" fill="#50a55a" opacity="0.92"/>
  <circle cx="406" cy="623" r="25" fill="#4a9e76" opacity="0.92"/>
  <circle cx="439" cy="623" r="27" fill="#27785f" opacity="0.92"/>
  <circle cx="427" cy="634" r="19" fill="#3ca266" opacity="0.92"/>
  <circle cx="487" cy="643" r="25" fill="#388251" opacity="0.92"/>
  <circle cx="409" cy="684" r="19" fill="#409d64" opacity="0.92"/>
  <circle cx="422" cy="702" r="18" fill="#4ea769" opacity="0.92"/>
  <circle cx="420" cy="697" r="15" fill="#206b45" opacity="0.9"/>
  <circle cx="653" cy="565" r="18" fill="#4f9a62" opacity="0.9"/>
  <circle cx="365" cy="609" r="13" fill="#2c703a" opacity="0.9"/>
  <circle cx="492" cy="476" r="16" fill="#77d17d" opacity="0.9"/>
  <circle cx="385" cy="662" r="11" fill="#2c6447" opacity="0.9"/>
  <circle cx="655" cy="629" r="19" fill="#1f6f4b" opacity="0.9"/>
  <circle cx="376" cy="647" r="15" fill="#176c4c" opacity="0.9"/>
  <circle cx="382" cy="658" r="13" fill="#27584a" opacity="0.9"/>
  <circle cx="369" cy="630" r="17" fill="#31674d" opacity="0.9"/>
  <circle cx="493" cy="476" r="15" fill="#a9e6b2" opacity="0.9"/>
  <circle cx="574" cy="713" r="15" fill="#20644c" opacity="0.9"/>
  <circle cx="387" cy="665" r="16" fill="#33664c" opacity="0.9"/>
  <circle cx="432" cy="495" r="17" fill="#afe7a5" opacity="0.9"/>
  <circle cx="439" cy="492" r="19" fill="#c2dea8" opacity="0.9"/>
  <circle cx="634" cy="531" r="15" fill="#3c705e" opacity="0.9"/>
  <circle cx="493" cy="476" r="16" fill="#86b88f" opacity="0.9"/>
  <circle cx="528" cy="476" r="12" fill="#54a875" opacity="0.9"/>
  <circle cx="659" cy="607" r="17" fill="#206c45" opacity="0.9"/>
  <circle cx="553" cy="720" r="19" fill="#1c6a3f" opacity="0.9"/>
  <circle cx="440" cy="491" r="11" fill="#b6e8a3" opacity="0.9"/>
  <circle cx="496" cy="724" r="15" fill="#2e623a" opacity="0.9"/>
  <circle cx="521" cy="475" r="19" fill="#3fa373" opacity="0.9"/>
  <circle cx="484" cy="477" r="11" fill="#8fd090" opacity="0.9"/>
  <circle cx="423" cy="556" r="24" fill="url(#dapple)" opacity="0.55"/>
  <circle cx="460" cy="554" r="17" fill="url(#dapple)" opacity="0.55"/>
  <circle cx="468" cy="583" r="16" fill="url(#dapple)" opacity="0.55"/>
  <circle cx="490" cy="550" r="18" fill="url(#dapple)" opacity="0.55"/>
  <ellipse cx="512" cy="672" rx="120" ry="39" fill="#1d4a31" opacity="0.22" filter="url(#soft)"/>
  <path d="M512 752 C 392 740 362 664 454 672 C 478 712 502 742 512 756 Z" fill="url(#baseG)"/>
  <path d="M512 752 C 632 740 662 664 570 672 C 546 712 522 742 512 756 Z" fill="url(#baseG)"/>
  <path d="M570 548 C 581 560 576 572 570 572 C 564 572 559 560 570 548 Z" fill="#bfe3ff" opacity="0.85"/><circle cx="567" cy="560" r="3" fill="#ffffff" opacity="0.9"/>
</svg>